<?xml version="1.0" encoding="UTF-8"?>
<svg id="Layer_1" data-name="Layer 1" xmlns="http://www.w3.org/2000/svg" viewBox="0 0 911.39 1080">
  <defs>
    <style>
      .cls-1 {
        fill: #a9272d;
      }

      .cls-1, .cls-2, .cls-3, .cls-4, .cls-5, .cls-6, .cls-7 {
        stroke-width: 0px;
      }

      .cls-2 {
        fill: #3c3b3b;
      }

      .cls-3 {
        fill: none;
      }

      .cls-4 {
        fill: #7d8390;
      }

      .cls-5 {
        fill: #d9d9d9;
      }

      .cls-6 {
        fill: #c6d3e6;
      }

      .cls-7 {
        fill: #99a3bb;
      }
    </style>
  </defs>
  <g id="Badge">
    <g id="Background_Grey" data-name="Background Grey">
      <path class="cls-2" d="m455.7,1080S0,938.11,0,478.54C0,40.67,0,0,0,0h911.39v478.54c0,459.56-455.7,601.46-455.7,601.46"/>
    </g>
    <g id="Background_Red" data-name="Background Red">
      <path class="cls-1" d="m24.41,190.09v288.75c0,182.32,73.2,334.76,217.56,453.09,92.94,76.17,187.26,113.13,213.72,122.58,26.46-9.45,120.78-46.41,213.72-122.58,144.36-118.32,217.56-270.77,217.56-453.09V190.09H24.41Z"/>
    </g>
    <g id="Castle">
      <path class="cls-4" d="m742.97,469.05s19.29-30.13,19.29-73.2v-34.34h-43.4v34.34h-27.88v-34.34h-37.22v34.34h-26.37v-34.34h-41.85v34.34c0,43.08,19.29,73.2,19.29,73.2h-19.29v33.44h-32.6l-3.47-161.77s23.96-54.23,23.96-90.38v-32.54h-40.99v32.54h-26.97v-32.54h-38.58v32.54h-21.1v-32.54h-38.58v32.54h-26.97v-32.54h-40.99v32.54c0,36.15,23.96,90.38,23.96,90.38l-3.47,161.77h-32.6v-33.44h-19.29s19.29-30.13,19.29-73.2v-34.34h-41.85v34.34h-26.37v-34.34h-37.22v34.34h-27.88v-34.34h-43.4v34.34c0,43.08,19.29,73.2,19.29,73.2v189.79c0,61.46-21.7,171.72-21.7,171.72l-1.26,5.92c.07.08.13.17.2.25h.66c2.33-.61,11.51-2.86,16.22-2.86,5.42,0,38.58-7.23,54.45-7.23s28.53,4.42,47.62,4.42c5.98,0,9.89,1.28,12.69,3.04,6.14,3.86,6.97,10.01,12.62,10.01,4.67,0,13.97-5.73,22.3-10.71,6.37-3.81,12.17-7.17,14.87-7.17,6.23,0,21.9-14.86,28.93-14.86s24.91-3.21,24.91-3.21h18.79c2.39,0,4.32-1.93,4.32-4.32v-1.57c0-2.68,2.18-4.86,4.86-4.86h8.16v-100.62c0-20.96,17-37.96,37.97-37.96s37.97,16.99,37.97,37.96v100.62h2.96c4.82,0,9.54-9.34,12.56-9.34s26.12,22.49,32.95,22.49,19.69,8.84,19.69,8.84c0,0,15.47,9.44,60.68,9.44s57.36-9.44,77.56-9.44,60.88,4.25,60.88,4.25h1.75c-4.7-25.04-20.38-112.57-20.38-164.82v-189.79Zm-484.03,68.69h-34.06v-34.19c0-9.4,7.62-17.02,17.03-17.02s17.03,7.62,17.03,17.02v34.19Zm214.44-141.89h-34.06v-37.96c0-9.91,8.47-17.84,18.58-16.95,8.84.78,15.48,8.46,15.48,17.34v37.57Zm214.44,141.89h-34.06v-34.19c0-9.4,7.62-17.02,17.03-17.02s17.03,7.62,17.03,17.02v34.19Z"/>
      <g>
        <path class="cls-6" d="m161.28,403.55l44.42-.8c1.56-.03,2.89,1.15,3.03,2.71l1.62,16.95c.16,1.72-1.16,3.23-2.9,3.27l-43.64,1.23c-1.53.04-2.84-1.07-3.05-2.58l-2.4-17.38c-.25-1.78,1.12-3.37,2.91-3.4Z"/>
        <path class="cls-6" d="m216.24,423.09l.67-17.6c.04-1.15.96-2.08,2.11-2.14l23.58-1.18c.91-.05,1.82-.05,2.73-.02l29.6,1.01c1.19.04,2.13,1,2.15,2.19l.3,18.49c.02,1.25-1,2.28-2.25,2.26l-56.68-.7c-1.25-.02-2.25-1.06-2.2-2.31Z"/>
        <path class="cls-6" d="m180.06,469.38l47.59-.82c2.57-.04,3.73,3.2,1.71,4.79l-1.77,1.4c-2.13,1.68-3.99,3.68-5.51,5.93l-4.86,7.15c-1.31,1.93-2.29,4.07-2.89,6.32l-2.25,8.42c-.31,1.18-1.38,1.99-2.6,1.99h-30.58c-1.53,0-2.75-1.27-2.68-2.79l1.19-29.82c.06-1.42,1.21-2.55,2.64-2.58Z"/>
        <path class="cls-7" d="m247.97,469.33l17.15-3.38c.38-.07.76-.08,1.14,0l28.28,5.35c1.43.27,2.46,1.52,2.45,2.97l-.13,26.2c0,1.6-1.27,2.92-2.87,2.99l-21.39,1c-1.45.07-2.74-.91-3.07-2.33l-1.39-6.01c-.5-2.16-1.36-4.22-2.54-6.1l-6.14-9.74c-1.2-1.9-2.84-3.48-4.78-4.6l-7.09-4.1c-.97-.56-.73-2.03.37-2.25Z"/>
        <path class="cls-6" d="m195.87,433.12l35.77-1.36c1-.04,1.95.41,2.55,1.21l6.04,7.99c.28.37.44.83.44,1.3v11.98c0,1.19-.97,2.16-2.16,2.16h-23.15c-.27,0-.54-.05-.79-.15l-10.39-4.1c-.44-.17-.81-.49-1.05-.89l-9.02-14.87c-.85-1.41.12-3.21,1.77-3.28Z"/>
        <path class="cls-7" d="m252.24,431.7h40.36c1.96,0,3.28,1.99,2.52,3.8l-7.35,17.45c-.42,1-1.39,1.66-2.48,1.67l-33.01.53c-1.53.02-2.78-1.21-2.78-2.74v-17.98c0-1.51,1.23-2.74,2.74-2.74Z"/>
        <path class="cls-6" d="m177.8,514.58l-.2,33.08c0,1.41,1.16,2.54,2.57,2.49l28.23-1.02c1.31-.05,2.36-1.11,2.39-2.42l.73-32.04c.03-1.39-1.09-2.53-2.47-2.53l-28.76-.02c-1.36,0-2.47,1.1-2.48,2.46Z"/>
        <path class="cls-6" d="m181.48,558.96l51.87-2.22c1.46-.06,2.68,1.07,2.73,2.52l.99,35.61c.04,1.42-1.08,2.61-2.51,2.66l-52.86,2.05c-1.48.06-2.72-1.12-2.72-2.59v-35.43c0-1.39,1.1-2.53,2.5-2.59Z"/>
        <path class="cls-7" d="m249.08,556.69l50.37,1.35c1.17.03,2.12.89,2.15,1.97l1.08,34.58c.04,1.12-.94,2.06-2.17,2.08l-51.45,1.01c-1.24.02-2.27-.89-2.27-2.03v-36.94c0-1.14,1.03-2.06,2.28-2.02Z"/>
        <path class="cls-7" d="m298.04,552.16l-24.77-.62c-1-.03-1.8-.84-1.81-1.85l-.17-36.05c0-.88.61-1.64,1.46-1.82l6.94-1.5c2.69-.58,5.5-.29,8.01.83l13.01,5.79c.71.31,1.14,1.03,1.1,1.81l-1.88,31.67c-.06,1-.9,1.77-1.9,1.74Z"/>
        <path class="cls-6" d="m180.82,608.76l21.14-1.38c1.15-.07,2.13.75,2.13,1.79v33.57c0,.96-.84,1.75-1.91,1.79l-21.14.76c-1.13.04-2.07-.77-2.07-1.79v-32.96c0-.94.8-1.72,1.84-1.79Z"/>
        <path class="cls-6" d="m215.57,610.82l51.11-.62c1.13-.01,2.06.79,2.1,1.81l1.16,30.66c.04,1.04-.87,1.91-2.02,1.93l-53.09,1.24c-1.19.03-2.16-.85-2.13-1.92l.83-31.28c.03-1.01.93-1.81,2.05-1.83Z"/>
        <path class="cls-7" d="m296.73,647.53c-4.84-.92-12.19-2.36-16.6-3.22-2.08-.41-3.47-2.37-3.17-4.47l3.46-23.89c.14-.96.62-1.83,1.36-2.46l7.18-6.11c.72-.61,1.63-.95,2.58-.95h5.28c2.17,0,3.94,1.73,3.98,3.9.15,7.69.48,24.81.64,33.22.05,2.53-2.23,4.45-4.72,3.98Z"/>
        <path class="cls-6" d="m181.2,653.02h52.49c1.19,0,2.17.93,2.22,2.1l1.16,30.51c.05,1.26-1,2.29-2.28,2.26l-53.64-1.37c-1.2-.03-2.16-1-2.16-2.18v-29.14c0-1.2.99-2.18,2.22-2.18Z"/>
        <path class="cls-7" d="m250.43,653.02h49.3c1,0,1.82.75,1.82,1.68v31.52c0,.93-.81,1.68-1.82,1.68h-51.01c-1.04,0-1.87-.8-1.81-1.76l1.72-31.52c.05-.89.85-1.59,1.81-1.59Z"/>
        <path class="cls-6" d="m176.06,696.7l28.67-1.84c1.16-.07,2.33.14,3.39.62l5.93,2.68c.52.24.83.8.74,1.36l-1.33,8.45c-.08.49-.47.86-.97.9-3.14.23-14.67,1.07-20.56,1.49-2.34.17-4.67-.08-6.92-.73-3.32-.96-8.15-2.37-10.02-2.94-.49-.15-.8-.62-.74-1.12l.81-7.92c.05-.52.47-.92.99-.95Z"/>
        <path class="cls-6" d="m225.91,695.79h38.63c.77,0,1.4.54,1.4,1.2v12.82c0,.66-.62,1.2-1.4,1.2h-40.16c-.83,0-1.47-.61-1.39-1.32l1.52-12.82c.07-.61.67-1.08,1.39-1.08Z"/>
        <path class="cls-7" d="m275.82,696.87h19.94c.26,0,.52.07.76.19l5.62,3.01c.41.22.71.61.81,1.07l1.16,5.35c.19.88-.38,1.74-1.27,1.91l-26.72,5.06c-.99.19-1.9-.57-1.9-1.57v-13.42c0-.88.72-1.6,1.6-1.6Z"/>
        <path class="cls-7" d="m292.46,714.92l6.23,2.19c.61.21,1.12.65,1.42,1.21l5.78,10.62c.14.26.24.55.29.85l1.73,11.32c.24,1.58-.98,3-2.57,3h-12.29c-1.25,0-2.32-.89-2.56-2.12l-2.54-13.33c-.05-.25-.06-.5-.03-.75l1.09-10.79c.17-1.68,1.86-2.75,3.45-2.19Z"/>
        <path class="cls-6" d="m247.92,718.49h28.62c1.26,0,2.27,1.04,2.23,2.3l-.62,21.15c-.04,1.21-1.02,2.16-2.23,2.16h-28c-1.23,0-2.23-1-2.23-2.23v-21.15c0-1.23,1-2.23,2.23-2.23Z"/>
        <path class="cls-6" d="m211.6,719.25h19.61c1.55,0,2.92,1.15,3.41,2.85l1.83,6.4c.42,1.46.69,2.98.81,4.51l.55,7.23c.19,2.46-1.51,4.57-3.64,4.53l-26.55-.57c-2.34-.05-4.01-2.64-3.4-5.26l3.91-16.63c.43-1.81,1.84-3.07,3.46-3.07Z"/>
        <path class="cls-6" d="m196.24,718.77c1.59.28,2.77,1.63,2.81,3.25l.37,12.74v2.54c0,1.22-.66,2.35-1.72,2.95l-2.26,1.28c-.36.2-.75.34-1.16.4l-13.35,2.06c-.43.07-.87.05-1.29-.05l-6.13-1.44c-1.65-.39-2.76-1.92-2.61-3.61l1.16-12.95c.1-1.11.74-2.1,1.71-2.65l7.89-4.47c.39-.22.81-.36,1.25-.42l6.01-.76c.33-.04.67-.03,1.01.02l6.31,1.1Z"/>
        <path class="cls-6" d="m171.25,753.39l9.87-.54c2.37-.13,4.75-.12,7.12.03l19.81,1.28c1.43.09,2.45,1.36,2.16,2.69l-3.53,16.67c-.22,1.06-1.21,1.82-2.35,1.81l-36.16-.42c-1.46-.02-2.56-1.28-2.31-2.64l3.19-17.02c.19-1.03,1.1-1.79,2.2-1.85Z"/>
        <path class="cls-6" d="m225.7,752.76h29.76c1.29,0,2.36.89,2.42,2.02l1.06,18.17c.07,1.24-1.07,2.27-2.48,2.24l-37.98-.85c-1.65-.04-2.78-1.49-2.22-2.85l7.16-17.32c.35-.84,1.26-1.4,2.28-1.4Z"/>
        <path class="cls-7" d="m272.04,753.39l21.25-.63c.29,0,.58.03.86.1l9.5,2.61c.93.25,1.65.95,1.9,1.83l4.45,15.52c.48,1.68-.87,3.33-2.71,3.31l-36.02-.46c-1.56-.02-2.8-1.26-2.73-2.74l.82-17.05c.07-1.37,1.23-2.46,2.68-2.5Z"/>
        <path class="cls-6" d="m163.51,783.31l-3.74,20.37c-.24,1.31.78,2.5,2.11,2.48l22.92-.46c1.09-.02,1.98-.87,2.05-1.96l1.02-15.59c.04-.55-.15-1.1-.51-1.52l-4.3-4.92c-.42-.48-1.03-.74-1.66-.72l-15.9.6c-.98.04-1.81.75-1.99,1.72Z"/>
        <path class="cls-6" d="m200.07,783.71l32.79-.97c1.39-.04,2.57,1.01,2.65,2.37l1,16.46c.09,1.45-1.09,2.67-2.57,2.67h-34.98c-1.5,0-2.68-1.25-2.57-2.71l1.19-15.49c.1-1.29,1.17-2.29,2.49-2.33Z"/>
        <path class="cls-6" d="m250.47,785.59l-3.6,15.65c-.38,1.65.96,3.21,2.77,3.23l40.55.51c1.89.02,3.29-1.63,2.82-3.33l-4.2-15.26c-.32-1.15-1.42-1.97-2.7-2.01l-32.74-.9c-1.39-.04-2.6.85-2.89,2.11Z"/>
        <path class="cls-7" d="m303.64,783.48h7.58c.95.55,1.96,1.13,2.91,1.68l8.55,16.6c.91,1.77-.32,3.83-2.45,4.11l-13.66,1.78c-1.43-.99-2.22-1.54-3.65-2.53l-2.48-18.38c1.28-1.31,1.91-1.95,3.19-3.26Z"/>
        <path class="cls-6" d="m323.99,765.66l40.55-1.89c1.13-.05,2.12.77,2.26,1.89l2.29,17.24c.17,1.25-.77,2.39-2.03,2.46l-37.46,2.31c-1.01.06-1.93-.58-2.22-1.54l-5.39-17.66c-.42-1.36.56-2.75,1.99-2.81Z"/>
        <path class="cls-6" d="m318.97,735.68l4.02-3.47c.69-.59,1.54-.95,2.45-1.02l3.32-.26c1.86-.14,3.59.94,4.27,2.67l3,7.6c.24.61.34,1.28.28,1.94l-.78,8.72c-.12,1.28-.8,2.44-1.88,3.16-2.09,1.38-5.4,3.54-5.76,3.54-.27,0-2.78.2-5.17.39-2.4.19-4.49-1.65-4.58-4.06l-.64-15.83c-.05-1.29.49-2.54,1.47-3.38Z"/>
        <path class="cls-6" d="m349.88,733.43l42.8-1.24c2.56-.07,4.71,1.9,4.86,4.45l.7,12.25c.19,3.31-2.4,6.12-5.72,6.19l-42.94.96c-2.73.06-4.94-2.19-4.83-4.92l.55-13.16c.1-2.48,2.1-4.45,4.58-4.53Z"/>
        <path class="cls-6" d="m378.69,700.8l17.86-1.18c1.78-.12,3.29,1.27,3.34,3.05l.45,17.73c.04,1.7-1.28,3.12-2.97,3.21l-18.63.94c-1.81.09-3.32-1.37-3.29-3.19l.32-17.49c.03-1.63,1.3-2.96,2.93-3.07Z"/>
        <path class="cls-6" d="m380.18,765.19h13.14c1.74,0,3.27,1.16,3.73,2.84.87,3.21,2,8.47,2.81,12.35.53,2.54-1.47,4.9-4.06,4.81-4.36-.16-10.49-.37-14.09-.48-1.89-.05-3.46-1.46-3.72-3.33l-1.64-11.79c-.32-2.32,1.48-4.4,3.83-4.4Z"/>
        <path class="cls-6" d="m317.63,696.97l42.59.64c3.36.05,6.08,2.75,6.15,6.11l.33,14.8c.08,3.41-2.6,6.25-6.01,6.38l-33.65,1.29c-2.26.09-4.51-.4-6.52-1.43l-5.26-2.66c-2.02-1.02-3.33-3.05-3.42-5.31l-.55-13.31c-.15-3.59,2.75-6.56,6.34-6.51Z"/>
        <path class="cls-6" d="m308.86,685.39l1.23-11.27c.15-1.41,1-2.64,2.27-3.28l9.75-4.97c1.22-.62,2.67-.61,3.88.03l5.78,3.07c1.37.73,2.23,2.15,2.23,3.71v13.76c0,2.38-1.97,4.28-4.35,4.19l-16.76-.59c-2.44-.09-4.29-2.22-4.03-4.65Z"/>
        <path class="cls-6" d="m344.28,671.89l1.63,17.62c.16,1.74,1.63,3.08,3.38,3.08h44.2c1.63,0,3.02-1.15,3.33-2.75l3.4-17.62c.4-2.09-1.2-4.03-3.33-4.03h-49.23c-2,0-3.56,1.72-3.38,3.7Z"/>
        <path class="cls-6" d="m366.78,641.71l.05,13.32c0,2.52-2.04,4.57-4.56,4.57h-42.25c-1.28,0-2.49-.53-3.36-1.47l-8.55-9.31c-1.91-2.08-1.49-5.38.89-6.91l8.28-5.34c.78-.5,1.69-.75,2.61-.73l42.47,1.32c2.46.08,4.41,2.08,4.42,4.54Z"/>
        <path class="cls-6" d="m308.37,611.5v11.05c0,2.74,1.81,5.14,4.43,5.91l9.34,2.72c1.24.36,2.55.32,3.77-.1l6.5-2.29c2.69-.95,4.38-3.62,4.07-6.46l-1.28-11.9c-.34-3.19-3.09-5.58-6.3-5.49l-14.55.42c-3.33.1-5.98,2.82-5.98,6.15Z"/>
        <path class="cls-6" d="m312.17,575.55h49.91c2.26,0,4.13,1.75,4.28,4.01l.95,14.7c.16,2.44-1.76,4.52-4.21,4.56l-50.48.77c-2.35.04-4.29-1.83-4.35-4.18l-.39-15.47c-.06-2.41,1.88-4.39,4.28-4.39Z"/>
        <path class="cls-6" d="m308.6,547.08l-1.68,12.8c-.22,1.67.51,3.32,1.89,4.28l7.36,5.14c.9.63,2,.91,3.09.78l11.48-1.31c2.28-.26,4-2.19,4-4.48v-16.03c0-2.43-1.92-4.42-4.35-4.51l-17.17-.61c-2.32-.08-4.33,1.62-4.63,3.92Z"/>
        <path class="cls-6" d="m349.25,542.68l17.83-1.75c3.06-.3,6.13-.4,9.2-.3l31.1,1c2.18.07,3.92,1.86,3.92,4.04v18.92c0,2.23-1.81,4.05-4.05,4.05h-57.61c-2.24,0-4.05-1.81-4.05-4.05v-17.89c0-2.08,1.58-3.82,3.65-4.03Z"/>
        <path class="cls-6" d="m425.17,542.91l33.96-1.03c1.47-.04,2.93-.04,4.4.02l26.25.99c2.04.08,3.65,1.75,3.65,3.78v18.12c0,2.11-1.73,3.81-3.84,3.79l-62.85-.84c-.54,0-1.08-.13-1.57-.36l-2.38-1.12c-1.39-.66-2.25-2.09-2.17-3.63l.88-16.13c.11-1.96,1.7-3.52,3.67-3.58Z"/>
        <path class="cls-6" d="m507.02,540.54l34.71,1.17c1.75.06,3.5.22,5.23.49l13.74,2.14c1.2.19,2.12,1.17,2.24,2.38l1.53,16.66c.13,1.47-.95,2.76-2.42,2.89l-26.77,2.22c-.97.08-1.95.11-2.92.08l-25.49-.65c-1.44-.04-2.59-1.21-2.59-2.65v-22.08c0-1.5,1.24-2.7,2.74-2.65Z"/>
        <path class="cls-6" d="m312.29,517.09v14.91c0,2.35,2.36,4.22,5.16,4.08l45.33-2.17c2.67-.13,4.72-2.03,4.6-4.27l-.74-13.6c-.12-2.22-2.34-3.95-4.99-3.9l-44.59.86c-2.65.05-4.77,1.87-4.77,4.09Z"/>
        <path class="cls-6" d="m380.15,514.23l-1.47,15.45c-.12,1.29,1.09,2.41,2.66,2.45l64.95,1.6c1.55.04,2.83-.99,2.83-2.27v-16.67c0-1.25-1.22-2.26-2.73-2.27l-63.48-.38c-1.44,0-2.65.9-2.76,2.09Z"/>
        <path class="cls-6" d="m462.74,532.4c.03-4.41-.02-13.34-.04-17.73,0-1.41,1.36-2.55,3.05-2.53l58.87.61c1.61.02,2.91,1.09,2.97,2.43l.69,16.35c.06,1.41-1.27,2.59-2.96,2.61l-59.52.8c-1.69.02-3.07-1.12-3.06-2.53Z"/>
        <path class="cls-7" d="m577.07,544.98l-3.87,20.24c-.26,1.35.82,2.57,2.19,2.49l25.62-1.53c1.11-.07,1.98-.99,1.98-2.1v-21.27c0-1.26-1.1-2.23-2.35-2.09l-21.74,2.56c-.91.11-1.65.79-1.82,1.69Z"/>
        <path class="cls-7" d="m538.03,513.19v18.58c0,1.08,1.02,1.96,2.28,1.96h59.69c1.24,0,2.25-.84,2.28-1.9l.62-18.58c.04-1.1-1-2.01-2.28-2.01h-60.31c-1.26,0-2.28.88-2.28,1.96Z"/>
        <path class="cls-6" d="m372.11,475.48h13.73c.59,0,1.18.12,1.72.34l5.63,2.32c1.69.7,2.79,2.34,2.79,4.17v15.97c0,2.49-2.02,4.51-4.51,4.51h-19.36c-2.49,0-4.51-2.02-4.51-4.51v-18.3c0-2.49,2.02-4.51,4.51-4.51Z"/>
        <path class="cls-7" d="m367.93,459l-.16,7.54c0,.44.33.8.77.82l31.71,1.33c.42.02.76.36.77.78l.96,33.32c.01.45.39.8.83.78l23.53-.75c.43-.01.78-.37.78-.8v-33.74c0-.45.37-.82.82-.8l53.26,1.23c.43,0,.77.35.79.78l.96,32.53c.01.44.37.78.8.78h18.69c.45,0,.82-.37.8-.82l-.76-32.43c-.01-.45.35-.82.8-.82h40.88c.45,0,.81-.37.81-.82l-.19-8.9c0-.44-.37-.79-.81-.79h-175.25c-.44,0-.8.35-.81.79Z"/>
        <path class="cls-6" d="m436.44,475.48h35.21c1.71,0,3.09,1.38,3.09,3.09v22c0,1.73-1.43,3.13-3.16,3.09l-35.21-.79c-1.68-.04-3.02-1.41-3.02-3.09v-21.21c0-1.71,1.38-3.09,3.09-3.09Z"/>
        <path class="cls-6" d="m511.41,477.09h30.56c1.61,0,2.92,1.3,2.92,2.91v20.73c0,1.64-1.35,2.96-2.99,2.91l-30.56-.78c-1.58-.04-2.84-1.33-2.84-2.91v-19.95c0-1.61,1.31-2.91,2.92-2.91Z"/>
        <path class="cls-6" d="m370.51,411.01h2.18c.9,0,1.67.62,1.86,1.5l3.6,16.44c.19.88.16,1.79-.09,2.66l-4.14,14.37c-.24.82-.98,1.38-1.83,1.38h-1.58c-1.05,0-1.91-.85-1.91-1.91v-32.54c0-1.05.85-1.91,1.91-1.91Z"/>
        <path class="cls-6" d="m391.98,411.01h55.81c1.9,0,3.44,1.54,3.44,3.44v31.84c0,1.92-1.57,3.46-3.49,3.44l-55.81-.72c-1.88-.02-3.4-1.56-3.4-3.44v-31.12c0-1.9,1.54-3.44,3.44-3.44Z"/>
        <path class="cls-7" d="m465.39,410.93l54.69-1.04c2.31-.04,4.25,1.7,4.46,4l2.44,27.28c.22,2.5-1.69,4.68-4.2,4.78l-57.13,2.25c-2.49.1-4.56-1.89-4.56-4.39v-28.48c0-2.39,1.92-4.34,4.31-4.39Z"/>
        <path class="cls-7" d="m544.06,414.33v34.48c0,.94-.81,1.69-1.75,1.6l-5.78-.52c-.81-.07-1.43-.73-1.46-1.54l-1.33-35.23c-.02-.45.16-.89.48-1.21l3.67-3.6c.71-.69,1.87-.59,2.44.22l3.44,4.87c.19.27.29.6.29.93Z"/>
        <path class="cls-6" d="m374.88,363.62h40.5c2.3,0,4.22,1.76,4.4,4.06l2.27,27.72c.21,2.62-1.89,4.84-4.52,4.77l-42.77-1.09c-2.4-.06-4.31-2.02-4.31-4.41v-26.63c0-2.44,1.98-4.42,4.42-4.42Z"/>
        <path class="cls-7" d="m490.71,367.7l-1.18,29.54c-.07,1.65,1.26,3.03,2.91,3.03h47.01c1.64,0,2.96-1.36,2.91-3l-.93-31.39c-.05-1.62-1.41-2.89-3.03-2.82l-44.91,1.85c-1.52.06-2.73,1.28-2.79,2.79Z"/>
        <path class="cls-6" d="m376.58,354.28h-2.48c-2.16,0-3.89-1.77-3.84-3.92l.22-10.27c.01-.54-.09-1.07-.3-1.56l-2.88-6.9c-.57-1.36-.31-2.92.66-4.02l3.93-4.47c1.02-1.16,2.81-1.22,3.91-.12l3.12,3.12c.58.58.95,1.32,1.08,2.12l1.97,12.59c.07.42.06.84-.01,1.26l-1.59,9c-.32,1.84-1.92,3.17-3.79,3.17Z"/>
        <path class="cls-6" d="m387.13,351.91c-.04-6.78.01-22.29.04-29.18,0-1.89,1.54-3.41,3.43-3.41h52.88c2.15,0,3.77,1.95,3.37,4.06l-.57,2.99c-.2,1.06-.89,1.96-1.86,2.44l-5.05,2.47c-3.24,1.59-6.16,3.77-8.6,6.43l-4.5,4.91c-1.9,2.07-3.56,4.35-4.94,6.79l-2.92,5.15c-.63,1.12-1.84,1.78-3.12,1.73l-24.86-.99c-1.83-.07-3.28-1.57-3.29-3.4Z"/>
        <path class="cls-7" d="m466.64,325.46l2.96,1.72c2.5,1.45,4.68,3.38,6.42,5.67l6.83,9.02c1.69,2.23,3.07,4.68,4.1,7.28l1.97,4.97c.54,1.35,1.87,2.22,3.32,2.17l31.22-1.15c1.83-.07,3.29-1.56,3.31-3.4l.21-19.54c.03-2.88-1.67-5.5-4.31-6.64l-6.64-2.88c-2.59-1.12-5.38-1.7-8.2-1.7h-39.99c-2.45,0-3.33,3.25-1.2,4.48Z"/>
        <path class="cls-7" d="m533.01,329.18l1.16,25.23c.05,1.11.96,1.98,2.07,1.98h4.87c1.19,0,2.14-1,2.07-2.19l-.66-11.48c-.11-1.88.21-3.75.93-5.49l2.81-6.74c.55-1.31-.36-2.77-1.78-2.86l-9.26-.61c-1.23-.08-2.26.93-2.21,2.16Z"/>
        <path class="cls-6" d="m349.8,224.87l20.77-1.05c2.06-.1,3.77,1.56,3.72,3.62l-.48,19.2c-.05,2.03-1.79,3.6-3.81,3.44l-20.62-1.59c-1.87-.14-3.3-1.72-3.27-3.6l.32-16.56c.04-1.86,1.5-3.37,3.36-3.46Z"/>
        <polygon class="cls-6" points="413.66 224.74 414.37 248.27 439.13 247.73 439.13 223.63 413.66 224.74"/>
        <path class="cls-6" d="m473.53,226.58v22.55c0,.78.63,1.41,1.41,1.41h22.81c.77,0,1.41-.62,1.41-1.4l.22-23.76c0-.81-.67-1.47-1.49-1.42l-23.03,1.2c-.75.04-1.34.66-1.34,1.41Z"/>
        <path class="cls-7" d="m541.32,225.04h23.07c1.07,0,1.95.83,2.01,1.9l1.14,20.14c.06,1.07-.73,2-1.8,2.11l-24.21,2.45c-1.18.12-2.21-.81-2.21-2v-22.58c0-1.11.9-2.01,2.01-2.01Z"/>
        <path class="cls-6" d="m350.6,257.87h36.45c1.78,0,3.25,1.37,3.37,3.14l1.19,17.19c.14,1.95-1.41,3.61-3.37,3.61h-34.5c-1.63,0-3.03-1.17-3.32-2.77l-3.13-17.19c-.38-2.07,1.22-3.98,3.32-3.98Z"/>
        <path class="cls-6" d="m403.63,256.97h43.21c1.29,0,2.39.92,2.62,2.19l3.27,18.22c.29,1.62-.94,3.11-2.59,3.13l-47.78.54c-1.55.02-2.79-1.29-2.68-2.84l1.29-18.75c.1-1.39,1.25-2.48,2.65-2.48Z"/>
        <path class="cls-6" d="m462.26,258.03h52.19c1.11,0,2.01.9,2.01,2.01v20.81c0,1.12-.92,2.02-2.04,2.01l-52.19-.7c-1.1-.01-1.98-.91-1.98-2.01v-20.11c0-1.11.9-2.01,2.01-2.01Z"/>
        <path class="cls-7" d="m524.29,259.08l.36,21.43c.01.73.61,1.32,1.34,1.32h34.68c.65,0,1.21-.47,1.32-1.11l3.53-20.24c.14-.8-.46-1.54-1.28-1.57l-38.57-1.19c-.76-.02-1.39.6-1.38,1.36Z"/>
        <path class="cls-6" d="m353.5,291.61l7.5,24.23c.18.57.72.95,1.32.92l14.82-.87c.7-.04,1.24-.63,1.23-1.33l-.54-21.95c-.02-.63-.48-1.16-1.1-1.26l-15.71-2.44c-1.71-.27-3.46-.09-5.08.5l-1.63.59c-.65.24-1,.95-.8,1.61Z"/>
        <path class="cls-6" d="m382.63,290.65l4.09,22.11c.23,1.24,1.32,2.13,2.58,2.11l25.47-.42c1.43-.02,2.57-1.2,2.54-2.63l-.4-21.69c-.03-1.41-1.17-2.53-2.58-2.53h-29.17c-1.62,0-2.83,1.46-2.54,3.05Z"/>
        <path class="cls-6" d="m423.11,291.54l2.87,16.67c.25,1.46,1.53,2.51,3.01,2.48l48.29-1.17c1.65-.04,2.95-1.41,2.91-3.06l-.36-14.07c-.04-1.58-1.31-2.86-2.9-2.91l-50.8-1.43c-1.88-.05-3.34,1.63-3.02,3.49Z"/>
        <path class="cls-7" d="m490.34,290.78l-1.76,17.75c-.12,1.17.83,2.18,2.01,2.14l28.17-.94c.73-.02,1.39-.46,1.7-1.12l7.69-16.46c.6-1.28-.33-2.76-1.75-2.78l-34.1-.35c-1.01-.01-1.86.75-1.96,1.76Z"/>
        <path class="cls-7" d="m537.05,290.57l-9.18,22.67c-.42,1.04.26,2.2,1.38,2.34l19.43,2.37c.8.1,1.56-.37,1.82-1.13l8.04-23.02c.31-.88-.15-1.84-1.02-2.16l-5.47-2.03c-.19-.07-.39-.11-.59-.11h-12.81c-.7,0-1.32.42-1.58,1.07Z"/>
        <path class="cls-6" d="m594.75,367.73l23.91-.09c.99,0,1.79.8,1.78,1.79l-.26,24.77c-.01.95-.78,1.73-1.73,1.75l-23.65.54c-.99.02-1.81-.78-1.81-1.77v-25.22c0-.98.79-1.77,1.76-1.77Z"/>
        <path class="cls-6" d="m658.99,370.24v23.74c0,1.06.84,1.92,1.9,1.95l21.92.57c1.1.03,2-.85,2-1.95v-25.28c0-1.11-.93-2-2.04-1.95l-21.92.98c-1.04.05-1.86.9-1.86,1.95Z"/>
        <path class="cls-7" d="m724.89,370.6l.9,20.35c.05,1.18,1.01,2.11,2.19,2.13l26.07.43c1.29.02,2.33-1.06,2.26-2.35l-1.2-21.74c-.07-1.21-1.09-2.15-2.31-2.1l-25.76.96c-1.24.05-2.2,1.09-2.14,2.32Z"/>
        <path class="cls-6" d="m593.22,405.12l2.55,19.52c.11.82.81,1.43,1.63,1.43h36.04c.83,0,1.53-.62,1.63-1.44l2.66-21.04c.13-1.01-.68-1.89-1.7-1.85l-41.26,1.52c-.97.04-1.7.9-1.57,1.86Z"/>
        <path class="cls-6" d="m650.05,401.72l49.38,1.02c1,.02,1.81.8,1.88,1.79l1.16,17.82c.07,1.1-.79,2.03-1.89,2.04l-49.11.56c-1.01.01-1.86-.77-1.94-1.78l-1.42-19.4c-.08-1.13.82-2.08,1.95-2.06Z"/>
        <path class="cls-7" d="m713.99,405.07l-.3,17.8c-.03,1.76,1.4,3.19,3.15,3.17,9.22-.1,35.11-.39,34.95-.39-.15,0,1.73-14.28,2.65-21.17.25-1.91-1.26-3.58-3.19-3.52l-34.25,1.06c-1.66.05-3,1.4-3.02,3.07Z"/>
        <path class="cls-6" d="m599.57,438.14l7.06,17.56c.31.77,1.1,1.23,1.92,1.12l9.67-1.31c1.15-.16,1.86-1.34,1.45-2.42l-5.87-15.61c-.25-.67-.87-1.12-1.58-1.17l-10.86-.64c-1.32-.08-2.28,1.25-1.78,2.48Z"/>
        <path class="cls-6" d="m625.1,438.17l3.38,16.07c.24,1.15,1.29,1.96,2.47,1.89l35.48-2.09c1.63-.1,2.68-1.76,2.07-3.27l-6.4-15.83c-.38-.95-1.33-1.54-2.34-1.48l-32.45,1.85c-1.46.08-2.5,1.44-2.2,2.87Z"/>
        <path class="cls-6" d="m675.92,435.49v18.26c0,1.82,1.44,3.32,3.27,3.38l28.33,1c1.32.05,2.54-.67,3.14-1.85l9.25-18.16c1.13-2.21-.44-4.85-2.92-4.92l-37.58-1.1c-1.91-.06-3.49,1.48-3.49,3.39Z"/>
        <path class="cls-7" d="m732.27,433.34l13.76-.09c1.89-.01,3.21,1.87,2.56,3.64l-8.17,22.12c-.44,1.2-1.67,1.93-2.93,1.74l-13.71-2.03c-1.73-.26-2.77-2.07-2.11-3.69l8.12-19.99c.41-1.01,1.39-1.68,2.49-1.69Z"/>
        <path class="cls-7" d="m592.27,477.22l.98,23.58c.04,1.06,1.02,1.82,2.06,1.61l6.41-1.32c.74-.15,1.3-.77,1.36-1.53l2-22.69c.09-1.04-.75-1.91-1.79-1.87l-9.4.43c-.94.04-1.68.84-1.64,1.79Z"/>
        <path class="cls-6" d="m613.75,471.2l-2.94,27.9c-.16,1.51,1,2.85,2.52,2.9l23.36.87c1.23.05,2.33-.77,2.64-1.96l2.12-8.04c.43-1.63,1.18-3.16,2.19-4.51l6.93-9.19c1.04-1.38,2.3-2.6,3.72-3.59l4.14-2.88c2.09-1.46,1.09-4.75-1.46-4.79l-24.48-.4c-.09,0-.17,0-.26,0l-16.08,1.32c-1.26.1-2.27,1.09-2.4,2.35Z"/>
        <path class="cls-7" d="m680.45,471.6l3.29,2.23c2.31,1.56,4.38,3.45,6.15,5.6l4.3,5.22c2.27,2.75,3.69,6.1,4.1,9.64l.58,4.98c.14,1.23,1.2,2.14,2.44,2.1l31.91-1.06c1.33-.04,2.36-1.17,2.3-2.5l-1.47-28.89c-.06-1.27-1.13-2.27-2.4-2.26l-49.9.59c-2.33.03-3.23,3.04-1.3,4.34Z"/>
        <path class="cls-6" d="m610.51,513.03v30.91c0,1.98,1.61,3.59,3.59,3.59h22.8c1.98,0,3.59-1.61,3.59-3.59v-29.88c0-1.92-1.51-3.5-3.43-3.59l-22.8-1.03c-2.05-.09-3.75,1.54-3.75,3.59Z"/>
        <path class="cls-7" d="m733.06,513.34l.92,28.78c.08,2.51-2,4.56-4.51,4.44l-16.14-.78-7.64-.27c-2.26-.08-4.08-1.9-4.15-4.16l-.93-28.28c-.08-2.47,1.93-4.5,4.4-4.44l23.83.55c2.28.05,4.13,1.88,4.2,4.16Z"/>
        <path class="cls-6" d="m611.57,559.9v27.14c0,2.51,2.01,4.55,4.52,4.58l45.28.66c2.65.04,4.79-2.17,4.65-4.82l-1.39-26.81c-.12-2.4-2.08-4.29-4.48-4.35l-43.89-1c-2.57-.06-4.69,2.01-4.69,4.58Z"/>
        <path class="cls-7" d="m675.92,560.79v25.67c0,2.52,1.98,4.59,4.5,4.7l22.89,1.03c2.6.12,5.21.08,7.81-.12l18.66-1.39c2.46-.18,4.36-2.23,4.36-4.7v-26.58c0-2.65-2.19-4.78-4.84-4.71l-48.8,1.39c-2.55.07-4.58,2.16-4.58,4.71Z"/>
        <path class="cls-6" d="m612.98,606.13v32.94c0,1.16.94,2.11,2.11,2.11h15.74c1.21,0,2.18-1.02,2.11-2.23l-1.96-32.94c-.07-1.11-.99-1.98-2.11-1.98h-13.78c-1.17,0-2.11.94-2.11,2.11Z"/>
        <path class="cls-6" d="m643.92,604.07v35.97c0,1.4,1.14,2.54,2.54,2.54h52.68c1.4,0,2.54-1.14,2.54-2.54v-33.59c0-1.36-1.07-2.48-2.43-2.54l-52.68-2.38c-1.45-.07-2.66,1.09-2.66,2.54Z"/>
        <path class="cls-7" d="m732.72,599.77l1.97,38.58c.08,1.53-1.14,2.82-2.68,2.82h-15.03c-1.46,0-2.66-1.17-2.68-2.63l-.54-29.4c-.01-.68.23-1.33.68-1.84l5.8-6.47c1.64-1.83,3.89-2.98,6.33-3.24l3.18-.34c1.53-.17,2.89.99,2.97,2.53Z"/>
        <path class="cls-6" d="m616.54,653l43.71-2.76c1.96-.12,3.66,1.36,3.78,3.33l1.98,30.54c.14,2.08-1.54,3.83-3.63,3.79l-43.93-.86c-1.85-.04-3.37-1.48-3.49-3.33l-1.76-26.91c-.13-1.97,1.36-3.67,3.33-3.79Z"/>
        <path class="cls-7" d="m680.18,653l-1,28.14c-.06,1.57,1.14,2.91,2.71,3.03l45.96,3.58c1.59.12,3-1.05,3.15-2.64l2.84-29.04c.16-1.66-1.09-3.12-2.76-3.22l-47.8-2.67c-1.64-.09-3.04,1.18-3.1,2.83Z"/>
        <path class="cls-6" d="m612.98,698.58v8.9c0,1.2.98,2.18,2.18,2.18h26.45c1.26,0,2.25-1.06,2.18-2.31l-.54-8.9c-.07-1.15-1.02-2.05-2.18-2.05h-25.91c-1.2,0-2.18.98-2.18,2.18Z"/>
        <path class="cls-6" d="m655.91,709.66h28.05c1.05,0,1.87-.9,1.78-1.94l-1.07-11.89c-.09-1-.99-1.73-1.99-1.61l-15.79,1.88c-1.78.21-3.54.57-5.26,1.06l-4.79,1.37c-.65.19-1.14.72-1.27,1.39l-1.42,7.65c-.2,1.1.64,2.11,1.76,2.11Z"/>
        <path class="cls-7" d="m697.57,696.88v12.38c0,.93.77,1.66,1.7,1.62l29.91-1.45c.86-.04,1.54-.75,1.54-1.62v-8.03c0-.83-.63-1.53-1.46-1.61l-29.91-2.9c-.95-.09-1.78.66-1.78,1.61Z"/>
        <path class="cls-6" d="m609.8,722.89l-5.74,15.56c-.72,1.95.81,3.99,2.88,3.85l13.88-.95c1.29-.09,2.37-1.04,2.62-2.31l3.22-16.56c.23-1.18-.31-2.38-1.34-3l-3.87-2.32c-.89-.53-2-.54-2.89-.03l-7.48,4.27c-.58.33-1.03.86-1.27,1.49Z"/>
        <path class="cls-6" d="m636.65,719.29l-4.99,18.14c-.31,1.12.48,2.25,1.64,2.35l30.96,2.65c1.09.09,2.02-.76,2.02-1.86v-16.85c0-.92-.67-1.7-1.58-1.84l-25.96-3.93c-.93-.14-1.83.44-2.08,1.35Z"/>
        <path class="cls-6" d="m677.87,720.43v20.15c0,1.09.92,1.95,2.01,1.88l30.29-1.95c1.11-.07,1.92-1.07,1.75-2.17-.41-2.63-1.31-7.29-2-10.76-.54-2.74-2.58-4.94-5.27-5.7-4.42-1.25-10.97-3.1-13.56-3.85-.77-.23-1.57-.31-2.38-.24l-9.11.76c-.98.08-1.73.9-1.73,1.88Z"/>
        <path class="cls-7" d="m718.26,724.36l1.87,14.1c.19,1.44,1.42,2.52,2.88,2.52h16.59c1.87,0,3.26-1.75,2.83-3.57l-3.84-16.22c-.36-1.51-1.84-2.47-3.37-2.18l-6.87,1.3c-1.37.26-2.75.44-4.14.54l-3.27.23c-1.67.12-2.89,1.62-2.67,3.28Z"/>
        <path class="cls-6" d="m601.98,753.22l-7.73,16.74c-.65,1.41.34,3.03,1.89,3.09l29.66,1.17c1.72.07,3.41-.42,4.83-1.38l1.18-.8c1.85-1.25,3.2-3.1,3.84-5.24l3.23-10.88c.39-1.3-.49-2.63-1.84-2.79l-18.05-2.09c-.13-.01-.26-.02-.39-.01l-14.78.91c-.8.05-1.51.53-1.85,1.26Z"/>
        <path class="cls-6" d="m648.55,752.6l-1.48,19.91c-.07.98.71,1.82,1.69,1.82h43.41c1.04,0,1.84-.93,1.68-1.96l-3.09-19.91c-.13-.83-.84-1.44-1.68-1.44h-38.84c-.89,0-1.63.68-1.69,1.57Z"/>
        <path class="cls-7" d="m706.61,752.24v20.26c0,1,.83,1.81,1.83,1.78l35.94-.95c1.07-.03,1.88-.99,1.71-2.05l-2.88-18.79c-.13-.86-.86-1.5-1.73-1.51l-33.05-.52c-.99-.02-1.81.79-1.81,1.78Z"/>
        <path class="cls-6" d="m587.75,786.03l-5.32,13.62c-.63,1.61.56,3.34,2.28,3.34h19.98c1.19,0,2.21-.85,2.41-2.02l2.44-13.62c.27-1.5-.89-2.88-2.41-2.88h-17.09c-1.01,0-1.92.62-2.28,1.56Z"/>
        <path class="cls-6" d="m620.29,785.85l-5.44,14.43c-.91,2.4.87,4.97,3.44,4.97h42.77c1.98,0,3.6-1.57,3.68-3.54l.49-13.52c.07-2.05-1.54-3.76-3.59-3.81l-37.82-.9c-1.56-.04-2.98.92-3.53,2.38Z"/>
        <path class="cls-7" d="m679.15,786.98l.46,15.93c.04,1.29,1.13,2.31,2.42,2.25l46.56-1.99c1.78-.08,2.81-2.04,1.87-3.55l-7.5-12.01c-.4-.65-1.1-1.05-1.86-1.09l-39.53-1.93c-1.35-.07-2.47,1.03-2.43,2.38Z"/>
        <path class="cls-7" d="m735.92,788.65l2.79,9.51c.29,1,1.21,1.68,2.24,1.68h7.88c1.48,0,2.59-1.36,2.29-2.81l-2.15-10.46c-.24-1.18-1.35-1.99-2.55-1.85l-8.52.96c-1.44.16-2.39,1.59-1.98,2.98Z"/>
        <path class="cls-6" d="m517.45,765.93l12.29-.62c1.38-.07,2.6.89,2.86,2.25l2.62,13.79c.31,1.65-.9,3.2-2.58,3.28l-12.47.62c-1.39.07-2.62-.91-2.86-2.28l-2.45-13.79c-.29-1.64.92-3.16,2.58-3.25Z"/>
        <path class="cls-6" d="m544.26,766.56v18.36c0,.8.66,1.44,1.46,1.41l26.31-.91c.76-.03,1.36-.65,1.36-1.41v-18.27c0-.8-.66-1.44-1.46-1.41l-26.31.82c-.76.02-1.37.65-1.37,1.41Z"/>
        <path class="cls-7" d="m578.26,732.89l-1.13,19.36c-.1,1.75,1.56,3.07,3.24,2.57l5.51-1.64c.72-.21,1.31-.74,1.6-1.43l6.84-16.08c.65-1.52-.32-3.25-1.96-3.49l-11.21-1.64c-1.47-.21-2.8.87-2.89,2.35Z"/>
        <path class="cls-6" d="m561.46,732.95l-40.81-2.62c-1.69-.11-3.18,1.09-3.43,2.76l-2.36,15.37c-.29,1.87,1.08,3.6,2.97,3.75l35.63,2.83c.43.03.86-.02,1.27-.15l10.8-3.51c1.65-.54,2.59-2.27,2.14-3.95l-3.26-12.07c-.36-1.35-1.55-2.32-2.94-2.4Z"/>
        <path class="cls-6" d="m515.73,703.96v14.65c0,1.87,1.42,3.43,3.28,3.61l9.85.95c1.94.19,3.69-1.19,3.95-3.13l2.46-18.12c.3-2.18-1.4-4.12-3.6-4.12h-7.76c-.62,0-1.22.16-1.76.46l-4.54,2.52c-1.15.64-1.87,1.86-1.87,3.17Z"/>
        <path class="cls-7" d="m541.85,699.87v21.91c0,1.61,1.32,2.9,2.93,2.87l49.6-1.09c1.44-.03,2.64-1.13,2.79-2.56l2.01-18.55c.18-1.65-1.07-3.1-2.73-3.18l-51.61-2.28c-1.63-.07-3,1.23-3,2.87Z"/>
        <path class="cls-6" d="m512.27,666.48h49.41c1.53,0,2.84,1.11,3.09,2.62l2.79,16.91c.32,1.95-1.22,3.7-3.19,3.64l-49.34-1.6c-1.47-.05-2.71-1.11-2.98-2.56l-2.86-15.31c-.36-1.93,1.12-3.7,3.08-3.7Z"/>
        <path class="cls-7" d="m575.87,670.48l3.8,18.6c.2.96,1.1,1.6,2.07,1.46l16.18-2.33c.91-.13,1.58-.91,1.58-1.83v-15.6c0-1-.79-1.81-1.78-1.84l-19.99-.67c-1.19-.04-2.11,1.04-1.87,2.21Z"/>
        <path class="cls-7" d="m539.57,638.77l-.65,18.43c-.05,1.29,1.02,2.34,2.31,2.28l57.06-2.74c1.23-.06,2.17-1.1,2.1-2.33l-.77-13.71c-.06-1.11-.94-2-2.05-2.08l-38.39-2.7c-1.24-.09-2.49-.1-3.73-.03l-13.8.74c-1.14.06-2.05.98-2.09,2.13Z"/>
        <path class="cls-6" d="m529.42,638.74l1.8,16.54c.21,1.9-1.29,3.57-3.2,3.57h-23.95c-.8,0-1.57-.3-2.16-.83l-10.44-9.46c-1.36-1.23-2.86-2.31-4.47-3.2l-13.3-7.36c-.46-.25-.29-.95.24-.96l52.22-1.17c1.67-.04,3.09,1.21,3.27,2.87Z"/>
        <path class="cls-6" d="m376.11,640.5l3.67,16.92c.28,1.27,1.4,2.18,2.7,2.18h21.82c2.43,0,4.77-.89,6.59-2.49l6.94-6.13c3.07-2.71,6.52-4.95,10.24-6.67l4.1-1.89c2.69-1.24,1.81-5.27-1.16-5.27h-52.2c-1.76,0-3.07,1.62-2.7,3.34Z"/>
        <path class="cls-6" d="m345.32,608.86l-1.08,16.2c-.17,2.48,1.78,4.59,4.27,4.62l58.69.78c2.42.03,4.39-1.92,4.39-4.33v-16.33c0-2.37-1.91-4.31-4.29-4.33l-57.61-.66c-2.3-.03-4.22,1.75-4.38,4.05Z"/>
        <path class="cls-6" d="m377.68,578.76l-.49,17.33c-.05,1.92,1.53,3.48,3.45,3.4l65.66-2.86c1.87-.08,3.3-1.7,3.15-3.57l-1.15-14.47c-.14-1.72-1.57-3.05-3.3-3.05h-64.02c-1.79,0-3.26,1.42-3.31,3.21Z"/>
        <path class="cls-6" d="m422.54,608.96l.41,18.33c.05,2.39,2.14,4.23,4.52,3.98l26.67-2.77c1.48-.15,2.96-.25,4.45-.3l29.78-.9c2.34-.07,4.15-2.09,3.96-4.42l-1.16-14.34c-.17-2.13-1.95-3.77-4.08-3.77h-60.45c-2.3,0-4.15,1.89-4.1,4.19Z"/>
        <path class="cls-6" d="m504.15,607.52l-.79,17.57c-.07,1.64,1.25,3,2.89,2.97l55.33-.95c1.68-.03,2.96-1.49,2.78-3.16l-1.78-15.94c-.16-1.42-1.36-2.51-2.79-2.53l-52.75-.68c-1.54-.02-2.81,1.18-2.88,2.71Z"/>
        <path class="cls-7" d="m575.4,607.72v18.48c0,1.04.87,1.88,1.91,1.83l20.34-.89c1.02-.04,1.81-.92,1.75-1.94l-1-16.96c-.06-.95-.82-1.69-1.77-1.72l-19.34-.64c-1.04-.03-1.89.8-1.89,1.83Z"/>
        <path class="cls-7" d="m539.99,577.36v20.96c0,1.03.9,1.84,1.92,1.73l53.08-5.7c.69-.07,1.26-.55,1.47-1.2l4.02-12.73c.34-1.09-.44-2.21-1.58-2.26l-57.11-2.53c-.99-.04-1.81.74-1.81,1.73Z"/>
        <path class="cls-6" d="m527.66,578.05l2.19,14.65c.26,1.76-1.09,3.35-2.87,3.37l-63.88.69c-1.64.02-2.97-1.3-2.97-2.94v-15.33c0-1.62,1.32-2.94,2.94-2.94h61.69c1.46,0,2.69,1.06,2.91,2.5Z"/>
        <path class="cls-7" d="m284,403.11l33.37.47c1.24.02,2.19,1.12,2.02,2.34l-2.35,17.47c-.13.99-.95,1.74-1.94,1.79l-26.53,1.37c-.16,0-.31,0-.47-.03l-4.05-.72c-.97-.17-1.68-1-1.71-1.99l-.44-18.6c-.03-1.17.92-2.13,2.1-2.12Z"/>
        <path class="cls-7" d="m293.29,368.4l25.68-.53c1.04-.02,1.87.84,1.82,1.87l-1.24,24.84c-.05,1-.91,1.76-1.91,1.69l-23.91-1.67c-.92-.06-1.64-.82-1.66-1.74l-.52-22.64c-.02-.99.76-1.81,1.75-1.83Z"/>
        <path class="cls-6" d="m231.69,367.3l18.05,1.5c1.57.13,2.78,1.44,2.78,3.02v20.12c0,1.62-1.28,2.96-2.9,3.03l-18.05.75c-1.72.07-3.16-1.3-3.16-3.03v-22.37c0-1.77,1.51-3.17,3.28-3.02Z"/>
        <path class="cls-6" d="m187.15,370.48l.33,22.7c.02,1.48-1.16,2.69-2.63,2.72l-24.77.46c-1.52.03-2.77-1.22-2.73-2.74l.51-23.16c.03-1.46,1.22-2.62,2.68-2.62h23.94c1.47,0,2.66,1.18,2.68,2.64Z"/>
        <path class="cls-6" d="m181.82,434.44l-17.63-1.25c-.69-.05-1.2.63-.96,1.27l8.95,24.57c.13.37.48.61.87.62l24.06.67c.87.02,1.31-1.04.68-1.64l-7.16-6.83c-.66-.63-1.19-1.39-1.56-2.22l-6.44-14.63c-.14-.32-.45-.54-.8-.57Z"/>
        <path class="cls-7" d="m304.4,432.55l8.8.46c.84.04,1.4.88,1.12,1.68l-7.75,21.78c-.21.6-.83.94-1.45.81l-8.11-1.77c-.74-.16-1.17-.93-.92-1.64l7.07-20.46c.18-.53.69-.87,1.25-.85Z"/>
        <path class="cls-7" d="m309.47,474.13l7.54.39c1.07.06,1.93.92,1.96,2l.78,23.44c.04,1.13-.83,2.08-1.96,2.14l-10.64.57c-1.26.07-2.29-1-2.17-2.26l2.31-24.4c.1-1.11,1.06-1.93,2.17-1.87Z"/>
        <path class="cls-6" d="m271.63,557.29l-22.55-.6c-1.25-.03-2.28.88-2.28,2.02v36.94c0,1.14,1.02,2.05,2.27,2.03l22.35-.44c1.85-.04,3.32-1.41,3.32-3.1v-33.92c0-1.58-1.38-2.88-3.11-2.93Z"/>
        <path class="cls-6" d="m450.1,467.98l-22.16-.51c-.45-.01-.82.35-.82.8v33.74c0,.43-.34.79-.78.8l-23.53.75c-.45.01-.82-.34-.83-.78l-.96-33.32c-.01-.42-.35-.76-.77-.78l-31.71-1.33c-.44-.02-.78-.38-.77-.82l.16-7.54c0-.44.37-.79.81-.79h80.49c1.19,0,2.2.86,2.39,2.03l.82,5.05c.23,1.43-.89,2.72-2.34,2.68Z"/>
        <path class="cls-6" d="m195.13,812.5l-21.08-.39c-.16,0-.33,0-.49.02l-12.36,1.33c-1.74.19-3.14,1.51-3.42,3.24l-2.55,15.6c-.15.94.04,1.84.48,2.59,2.93-.56,6-1.03,8.14-1.03,3.81,0,21.26-3.56,36.82-5.68l-1.77-12.35c-.27-1.89-1.87-3.31-3.78-3.34Z"/>
        <path class="cls-6" d="m268.14,827.17l-4.33-11.64c-.93-2.49-3.32-4.13-5.98-4.09l-38.12.55c-4.86.07-9.23,2.97-11.18,7.41l-.89,2.02c-.89,2.02-.61,4.18.44,5.86,3.81-.4,7.31-.64,10.23-.64,15.87,0,28.53,4.42,47.62,4.42.83,0,1.61.03,2.36.08.37-1.24.36-2.61-.14-3.97Z"/>
        <path class="cls-7" d="m304.36,814.33l-26.38-2.07c-1.08-.08-2.02.72-2.1,1.8l-1.33,18.18c1.58.5,2.92,1.14,4.07,1.86,6.14,3.86,6.97,10.01,12.62,10.01,4.67,0,13.97-5.73,22.3-10.71,6.37-3.81,12.17-7.17,14.87-7.17,1.5,0,3.55-.87,5.9-2.18l-16-6.46c-4.46-1.8-9.16-2.9-13.95-3.28Z"/>
        <path class="cls-6" d="m387.15,800.85l-5.92-4.02c-.45-.3-.94-.53-1.47-.66l-5.97-1.48c-.41-.1-.83-.15-1.26-.13l-35.47,1.19c-2.75.09-4.8,2.58-4.36,5.29l.43,2.67c.27,1.69.75,3.35,1.43,4.93l4.56,10.63c.21.49.5.92.84,1.29,6.35-4.19,13.32-9.17,17.39-9.17,7.03,0,24.91-3.21,24.91-3.21h9.35l-2.99-5.67c-.35-.66-.86-1.23-1.47-1.65Z"/>
        <path class="cls-7" d="m750.67,813.44l-35.4.5c-1.68.02-3.03,1.39-3.03,3.07v2.71c15.22.71,34.15,2.44,43.53,3.36l-2.1-7.41c-.38-1.34-1.61-2.25-3-2.23Z"/>
        <path class="cls-6" d="m693.98,813.46c-10.41.31-51.23,1.53-62.56,1.81-1.65.04-2.97,1.39-2.97,3.05v10.48c38.62-.66,51.48-8.44,69.11-9.31-.23-1.35-.48-2.66-.68-3.71-.26-1.38-1.49-2.37-2.9-2.32Z"/>
        <path class="cls-6" d="m615.46,814.69h-24.92c-.85,0-1.69.11-2.51.34l-13.22,3.61c-.64.18-1.18.63-1.46,1.23l-1.49,3.18c8.47,2.5,23.27,5.43,46.68,5.77l-.8-12c-.08-1.2-1.07-2.13-2.27-2.13Z"/>
        <path class="cls-6" d="m564.52,816.76l-5.79-19.68c-.46-1.58-2.01-2.57-3.64-2.35l-26.34,3.64c-1.29.18-2.17.99-2.59,1.98,6.62,5.27,13.43,10.23,16.64,10.23,6.83,0,19.69,8.84,19.69,8.84,0,0,.38.23,1.18.62.8-.8,1.22-2,.84-3.28Z"/>
      </g>
    </g>
    <g id="Rocks">
      <path class="cls-3" d="m457.9,340.94c-10.1-.89-18.58,7.04-18.58,16.95v37.96h34.06v-37.57c0-8.87-6.64-16.56-15.48-17.34Z"/>
      <path class="cls-3" d="m456.36,658.85c-20.97,0-37.97,16.99-37.97,37.96v100.62h75.95v-100.62c0-20.96-17-37.96-37.97-37.96Z"/>
      <path class="cls-3" d="m241.92,486.53c-9.4,0-17.03,7.62-17.03,17.02v34.19h34.06v-34.19c0-9.4-7.62-17.02-17.03-17.02Z"/>
      <path class="cls-3" d="m147.08,836.86s.2-.05.55-.14h-.66c.03.06.07.1.1.14Z"/>
      <path class="cls-3" d="m670.79,486.53c-9.4,0-17.03,7.62-17.03,17.02v34.19h34.06v-34.19c0-9.4-7.62-17.02-17.03-17.02Z"/>
      <path class="cls-3" d="m24.41,478.85c0,136.57,41.07,256.38,122.36,357.63l1.26-5.92s21.7-110.26,21.7-171.72v-189.79s-19.29-30.13-19.29-73.2v-34.34h43.4v34.34h27.88v-34.34h37.22v34.34h26.37v-34.34h41.85v34.34c0,43.08-19.29,73.2-19.29,73.2h19.29v33.44h32.6l3.47-161.77s-23.96-54.23-23.96-90.38v-32.54h40.99v32.54h26.97v-32.54h38.58v32.54h21.1v-32.54h38.58v32.54h26.97v-32.54h40.99v32.54c0,36.15-23.96,90.38-23.96,90.38l3.47,161.77h32.6v-33.44h19.29s-19.29-30.13-19.29-73.2v-34.34h41.85v34.34h26.37v-34.34h37.22v34.34h27.88v-34.34h43.4v34.34c0,43.08-19.29,73.2-19.29,73.2v189.79c0,52.26,15.69,139.79,20.38,164.82h11.25c74.66-98.5,112.37-213.97,112.37-344.82V190.09H24.41v288.75Z"/>
      <g>
        <path class="cls-3" d="m24.41,478.85c0,136.57,41.07,256.38,122.36,357.63.07.08.13.17.2.25.03.04.07.09.1.13,0,0,.2-.05.55-.14,1.27-.32,4.57-1.14,8.08-1.81-.44-.75-.64-1.65-.48-2.59l2.55-15.6c.28-1.73,1.68-3.05,3.42-3.24l12.36-1.33c.16-.02.33-.02.49-.02l21.08.39c1.91.04,3.51,1.45,3.78,3.34l1.77,12.35c2.54-.35,5.03-.66,7.4-.9-1.05-1.68-1.33-3.84-.44-5.86l.89-2.02c1.95-4.45,6.32-7.34,11.18-7.41l38.12-.55c2.66-.04,5.05,1.6,5.98,4.09l4.33,11.64c.51,1.36.51,2.73.14,3.97,2.46.15,4.51.55,6.26,1.11l1.33-18.18c.08-1.08,1.02-1.89,2.1-1.8l26.38,2.07c4.79.38,9.5,1.48,13.95,3.28l16,6.46c1.75-.98,3.67-2.21,5.65-3.51-.34-.37-.63-.81-.84-1.29l-4.56-10.63c-.68-1.58-1.16-3.23-1.43-4.93l-.43-2.67c-.44-2.72,1.61-5.2,4.36-5.29l35.47-1.19c.42-.01.84.03,1.26.13l5.97,1.48c.52.13,1.02.35,1.47.66l5.92,4.02c.62.42,1.13.99,1.47,1.65l2.99,5.67h9.43c2.39,0,4.32-1.93,4.32-4.32v-1.57c0-2.68,2.18-4.86,4.86-4.86h87.06c4.82,0,9.54-9.34,12.56-9.34,1.6,0,8.84,6.32,16.32,12.26.42-.99,1.3-1.8,2.59-1.98l26.34-3.64c1.63-.22,3.17.77,3.64,2.35l5.79,19.68c.38,1.28-.04,2.48-.84,3.28,1.38.66,4.03,1.79,8.18,3.01l1.49-3.18c.28-.6.82-1.05,1.46-1.23l13.22-3.61c.82-.22,1.66-.34,2.51-.34h24.92c1.2,0,2.19.93,2.27,2.13l.8,12c1.51.02,3.05.04,4.63.04,1.82,0,3.57-.02,5.28-.05v-10.48c0-1.65,1.32-3.01,2.97-3.05,11.33-.28,52.15-1.5,62.56-1.81,1.41-.04,2.63.94,2.9,2.32.2,1.05.44,2.36.68,3.71,1.04-.05,2.09-.08,3.17-.08,3.36,0,7.29.12,11.51.31v-2.71c0-1.68,1.35-3.05,3.03-3.07l35.4-.5c1.39-.02,2.62.9,3,2.23l2.1,7.41c3.63.35,5.84.58,5.84.58h13.01c74.66-98.5,112.37-213.97,112.37-344.82V190.09H24.41v288.75Z"/>
        <path class="cls-2" d="m0,0v478.54c0,459.56,455.7,601.46,455.7,601.46,0,0,455.7-141.89,455.7-601.46V0H0Zm886.98,478.85c0,130.86-37.71,246.32-112.37,344.82h-13.01s-2.2-.23-5.84-.58c-9.39-.91-28.32-2.65-43.53-3.36-4.22-.2-8.15-.31-11.51-.31-1.08,0-2.13.03-3.17.08-17.63.87-30.48,8.65-69.11,9.31-1.71.03-3.46.05-5.28.05-1.58,0-3.12-.01-4.63-.04-23.41-.35-38.21-3.27-46.68-5.77-4.16-1.23-6.8-2.35-8.18-3.01-.81-.39-1.18-.62-1.18-.62,0,0-12.86-8.84-19.69-8.84-3.21,0-10.01-4.97-16.64-10.23-7.47-5.94-14.72-12.26-16.32-12.26-3.01,0-7.74,9.34-12.56,9.34h-87.06c-2.68,0-4.86,2.17-4.86,4.86v1.57c0,2.38-1.93,4.32-4.32,4.32h-18.79s-17.88,3.21-24.91,3.21c-4.07,0-11.03,4.98-17.39,9.17-1.98,1.31-3.89,2.53-5.65,3.51-2.35,1.31-4.4,2.18-5.9,2.18-2.7,0-8.5,3.36-14.87,7.17-8.33,4.97-17.63,10.71-22.3,10.71-5.66,0-6.48-6.15-12.62-10.01-1.15-.72-2.49-1.35-4.07-1.86-1.75-.56-3.8-.96-6.26-1.11-.75-.05-1.53-.08-2.36-.08-19.09,0-31.75-4.42-47.62-4.42-2.92,0-6.42.25-10.23.64-2.37.25-4.86.56-7.4.9-15.56,2.12-33.02,5.68-36.82,5.68-2.15,0-5.22.47-8.14,1.03-3.5.68-6.81,1.49-8.08,1.81-.35.09-.55.14-.55.14-.03-.04-.07-.09-.1-.13-.07-.08-.13-.17-.2-.25-81.29-101.26-122.36-221.06-122.36-357.63V190.09h862.57v288.75Z"/>
      </g>
    </g>
    <g id="Text">
      <g>
        <path class="cls-5" d="m349.28,961.32l.11.22h26.33v17.08h-58.59,0c2.91-10.29,9.04-19.38,17.47-25.95,14.15-11.02,21.75-18.07,21.75-25.73,0-4.86-3.15-8.43-7.51-8.43-5.22,0-8.7,5.19-9.79,14.49l-18.93-3.03c1.96-17.51,13.05-28.11,29.15-28.11s26.76,10.16,26.76,24.65c0,11.67-5.76,19.24-26.76,34.81Z"/>
        <path class="cls-5" d="m567.5,961.32l.11.22h26.33v17.08h-58.59,0c2.91-10.29,9.04-19.38,17.47-25.95,14.15-11.02,21.75-18.07,21.75-25.73,0-4.86-3.15-8.43-7.51-8.43-5.22,0-8.7,5.19-9.79,14.49l-18.93-3.03c1.96-17.51,13.05-28.11,29.15-28.11s26.76,10.16,26.76,24.65c0,11.67-5.76,19.24-26.76,34.81Z"/>
        <path class="cls-5" d="m392.58,941.11c0-24.22,10.99-39.24,28.83-39.24s28.61,14.92,28.61,39.03-10.99,39.24-28.83,39.24-28.61-14.92-28.61-39.03Zm37.86-.11c0-14.7-3.15-22.48-9.14-22.48s-9.14,7.78-9.14,22.48,3.15,22.49,9.14,22.49,9.14-7.78,9.14-22.49Z"/>
        <path class="cls-5" d="m465.03,941.11c0-24.22,10.99-39.24,28.83-39.24s28.61,14.92,28.61,39.03-10.99,39.24-28.83,39.24-28.61-14.92-28.61-39.03Zm37.86-.11c0-14.7-3.15-22.48-9.14-22.48s-9.14,7.78-9.14,22.48,3.15,22.49,9.14,22.49,9.14-7.78,9.14-22.49Z"/>
      </g>
      <g>
        <path class="cls-5" d="m64.26,55.38h31.98c30.47,0,49.82,16.34,49.82,42.23s-19.35,42.47-49.82,42.47h-31.98V55.38Zm25.53,65.38h6.86c15.23,0,24.02-8.47,24.02-23.02s-8.78-23.02-23.88-23.02h-7v46.05Z"/>
        <path class="cls-5" d="m240.76,55.38v51.66c0,21.83-14.96,34.72-40.35,34.72s-40.35-12.88-40.35-34.72v-51.66h25.53v51.54c0,10.02,5.22,15.51,14.82,15.51s14.82-5.49,14.82-15.51v-51.54h25.53Z"/>
        <path class="cls-5" d="m257.78,140.08V55.38h27.59l31.7,45.21h.27v-45.21h24.7v84.7h-24.7l-34.59-49.15h-.27v49.15h-24.7Z"/>
        <path class="cls-5" d="m399.97,55.38c19.76,0,32.25,8.71,32.25,22.55,0,7.64-3.71,13.6-10.71,17.3v.24c9.33,3.58,14.41,10.62,14.41,19.8,0,15.27-13.72,24.81-35.55,24.81h-40.76V55.38h40.35Zm-14.82,18.13v15.99h10.98c6.72,0,10.57-2.86,10.57-7.99s-3.84-7.99-10.57-7.99h-10.98Zm0,31.02v17.42h13.72c7.41,0,11.67-3.1,11.67-8.71s-4.26-8.71-11.67-8.71h-13.72Z"/>
        <path class="cls-5" d="m441.42,140.08l29.51-84.7h33.21l28.96,84.7h-27.04l-4.12-14.08h-29.92l-4.12,14.08h-26.49Zm35.41-30.78h20.31l-9.88-34.24h-.27l-10.16,34.24Z"/>
        <path class="cls-5" d="m592.95,140.08l-16.47-29.35h-9.33v29.35h-25.53V55.38h38.02c23.06,0,37.19,10.5,37.19,27.56,0,10.74-5.49,19.21-15.51,23.74l20.45,33.4h-28.82Zm-14.82-45.81c8.51,0,13.18-3.46,13.18-9.9s-4.67-9.9-13.04-9.9h-11.12v19.8h10.98Z"/>
        <path class="cls-5" d="m727.72,85.56c-3.29-8.23-9.33-12.53-17.57-12.53-12.21,0-19.21,9.07-19.21,24.7s7,24.7,18.67,24.7c8.23,0,14.82-4.65,18.53-13.12l22.1,8.23c-7.14,15.27-22.23,24.22-41.04,24.22-26.76,0-44.6-17.42-44.6-43.66s18.39-44.38,45.57-44.38c18.67,0,33.21,8.47,40.08,23.38l-22.51,8.47Z"/>
        <path class="cls-5" d="m824.62,85.56c-3.29-8.23-9.33-12.53-17.57-12.53-12.21,0-19.21,9.07-19.21,24.7s7,24.7,18.67,24.7c8.23,0,14.82-4.65,18.53-13.12l22.1,8.23c-7.14,15.27-22.23,24.22-41.04,24.22-26.76,0-44.6-17.42-44.6-43.66s18.39-44.38,45.57-44.38c18.67,0,33.21,8.47,40.08,23.38l-22.51,8.47Z"/>
      </g>
      <g>
        <path class="cls-5" d="m425.88,881.14h-30.32v-38.5h29.32v8.78h-17.72v6.07h15.85v8.13h-15.85v6.72h18.72v8.78Z"/>
        <path class="cls-5" d="m436.36,868.23c4.8,3.31,9.23,4.99,12.98,4.99,3.12,0,5.12-1.14,5.12-2.93,0-5.86-21.96-2.93-21.96-16.1,0-7.27,6.74-12.31,16.28-12.31,5.74,0,11.6,1.84,16.91,5.26l-5.86,7.59c-4.37-2.82-8.05-4.18-11.23-4.18-2.75,0-4.49,1.03-4.49,2.66,0,5.64,21.96,2.6,21.96,16.05,0,7.48-6.86,12.63-16.91,12.63-6.43,0-12.98-2.11-18.65-6.02l5.86-7.65Z"/>
        <path class="cls-5" d="m481.71,881.14v-29.5h-11.29v-9h34.19v9h-11.29v29.5h-11.6Z"/>
        <rect class="cls-5" x="503.11" y="870.83" width="12.73" height="11.06" rx=".89" ry=".89"/>
      </g>
    </g>
  </g>
</svg>